<!DOCTYPE svg PUBLIC "-//W3C//DTD SVG 1.1//EN" "http://www.w3.org/Graphics/SVG/1.1/DTD/svg11.dtd">
<!-- Uploaded to: SVG Repo, www.svgrepo.com, Transformed by: SVG Repo Mixer Tools -->
<svg height="800px" width="800px" version="1.1" id="Layer_1" xmlns="http://www.w3.org/2000/svg" xmlns:xlink="http://www.w3.org/1999/xlink" viewBox="0 0 513.2 513.2" xml:space="preserve" fill="#462154" stroke="#462154">
<g id="SVGRepo_bgCarrier" stroke-width="0"/>
<g id="SVGRepo_tracerCarrier" stroke-linecap="round" stroke-linejoin="round"/>
<g id="SVGRepo_iconCarrier"> <path style="fill:#cd68df;" d="M225.4,108.8c14.4,9.2,27.2,10.8,27.2,10.8s12.4-2.8,26.8-6.8h0.8v-2c0-0.8,3.2-2,4.8-2h1.2 c96.8,4,169.6,61.2,169.6,145.6c0,72.8-48.8,130.4-126.8,168.4c-53.6,26-55.2,65.6-58.4,74.4c-5.6,14-21.2,11.6-21.2,11.6 c2.8-35.2-26-64.8-86.8-101.6c-62-34.8-105.2-88.8-105.2-152.8C57.4,170.4,130.2,110.4,225.4,108.8z"/> <g> <path style="fill:#a4ba91;" d="M277.8,56L277.8,56l-1.2,1.2c-2.4,3.6-4.8,7.6-7.2,11.6c-5.6,8-10.8,24.4-14.4,39.2h1.2 c-0.8,1.2-1.2,2.8-1.6,4.8c-0.4,0-2,3.6-2,6l0,0c0,0,12.4-2,27.2-6c0-0.8,0-1.6-0.4-2c0.4,0,0.4,0,1.2,0v-2h4.8 c20-12,42.4-36.4,42.4-88.8C313,22,293.8,32,277.8,56z"/> <path style="fill:#a4ba91;" d="M225.4,108.8c-18.8-12-40-36.4-40-88.8c16,2,32,12.4,48,34.4l0.4,0.8c-3.2,14-5.6,30.8-5.6,53.2v0.4 H225.4C225.8,108.8,225.8,108.8,225.4,108.8z"/> <path style="fill:#a4ba91;" d="M256.6,4.4c-10,15.6-17.6,30.4-22.4,51.2V56c-2.8,12.8-2.8,30.4-3.2,50l-2.8,2.8v0.4h-0.8h-2H225 c14.4,12,27.2,10,27.2,10l0,0l-2-6V112l0,0h4c0-0.8,0.4-2,0.8-2.8l0,0c3.2-14.4,7.6-28.8,12.4-37.2l5.2,0.4l3.2-14.8 c0.4-0.8,0.8-0.8,1.2-1.2C272.6,33.6,265.4,18,256.6,4.4z"/> </g> <path d="M251.8,513.2c-1.2,0-2.4,0-3.2-0.4c-2-0.4-3.6-2-3.6-4.4c2.4-31.2-22-59.6-84.8-98c-68-38.4-106.8-95.2-106.8-156 c0-85.2,72.4-148,172-149.6c2,0,4,1.6,4,4s-1.6,4-4,4C130.2,114,61,173.6,61,254.4c0,58,37.6,112.4,103.2,149.2 c64,39.2,89.6,68,89.2,101.2c4-0.4,10.4-2,13.2-9.2c0.4-0.8,0.8-2.8,1.2-5.2c3.6-14.4,11.6-48,59.2-71.2 c81.6-40,124.8-96.8,124.8-164.8c0-80.8-69.6-140.4-165.6-141.6c-2.4,0-4-2-4-4s2-4,4-4l0,0c100.4,1.2,173.6,64.4,173.6,149.6 c0,71.2-44.8,130.8-129.2,172c-44,21.6-51.2,51.6-54.8,66c-0.8,2.8-1.2,4.8-1.6,6.4C269.4,510,258.6,513.2,251.8,513.2z"/> <path d="M253,122.8C252.6,122.8,252.6,122.8,253,122.8c-0.8,0-14.4-1.2-29.6-10.8c-19.2-12-42-37.6-42-92c0-1.2,0.4-2.4,1.2-3.2 c0.8-0.8,2-1.2,3.2-0.8c18,2.4,34.8,14,50.8,36c1.2,1.6,0.8,4.4-0.8,5.6s-4.4,0.8-5.6-0.8c-13.2-18-26.4-28.8-40.8-32 c1.2,47.6,21.2,70,38,80.4c13.2,8.4,25.6,9.6,25.6,9.6c2,0,4,2,3.6,4.4C256.6,121.2,255,122.8,253,122.8z"/> <path d="M227.8,112.4L227.8,112.4c-2.4,0-4-2-4-4c0.4-22,2.4-39.2,6-54c4.8-20.8,12.8-36,23.2-52.4c0.8-1.2,2-2,3.2-2l0,0 c1.2,0,2.8,0.8,3.2,2c10,15.2,16.8,32,21.6,52.8c0.4,2-0.8,4.4-2.8,4.8s-4.4-0.8-4.8-2.8c-4-17.2-9.6-31.6-17.2-44.8 c-8.4,14-14.8,26.8-18.8,44.4c-3.6,14.4-5.2,30.8-5.6,52.4C231.8,110.8,230.2,112.4,227.8,112.4z"/> <path d="M252.6,122.8c-1.2,0-2-0.4-2.8-1.2c-0.8-0.8-1.2-1.6-1.2-2.8c0-2.4,0.8-4.4,1.2-6.4c0.4-0.8,0.4-1.2,0.8-2 c0-0.8,0.4-1.6,0.8-2.4v-0.4c3.6-14.4,8.4-27.6,14.4-39.2c2.4-4.4,4.8-8.8,7.2-12.8c0.4-0.8,0.8-1.6,1.6-2.4 C295,22.8,318.2,16.8,327.4,16c1.2,0,2.4,0.4,3.2,0.8c0.8,0.8,1.2,2,1.2,3.2c0,55.2-24,80.4-44.4,92c-1.6,0.8-2.8,1.6-4.4,2.4 c-0.4,0.4-1.2,0.4-2,0.8c-0.4,0-0.4,0-0.4,0C265.4,122.4,253.4,122.8,252.6,122.8L252.6,122.8z M323.4,24.8 C308.2,28.4,292.6,40.4,281,58c-0.4,0.8-0.8,1.2-1.2,2c-2.4,3.6-4.8,7.6-6.8,12c-5.6,11.2-10.4,24-14,37.6v0.8c0,0.8-0.4,1.2-0.4,2 s-0.4,1.2-0.4,2c4.4-0.8,11.6-2.4,19.6-6.4c0.4-0.4,1.2-0.4,2-0.8c0.4,0,0.4,0,0.4,0c1.2-0.4,2.4-1.2,3.6-2 C301,95.2,322.2,72.8,323.4,24.8z"/> <path d="M176.2,388.8c-0.8,0-1.6-0.4-2.4-0.8c-0.4,0-0.4-0.4-0.8-0.4c-33.6-18.8-60-43.2-76-70.4c-1.2-2-0.4-4.4,1.6-5.6 s4.4-0.4,5.6,1.6c15.2,26,40.4,49.2,72.8,67.6c0,0,0.4,0,0.4,0.4c0.4,0.4,0.4,0.4,0.8,0.4c2,1.2,2.4,3.6,0.8,5.6 C178.6,388,177.4,388.8,176.2,388.8z"/> <path d="M428.6,272h-0.4c-2-0.4-3.6-2.4-3.6-4.4c0.4-4.4,0.8-8.4,0.8-13.2c0-28-10-52.8-28.8-72.8c-1.6-1.6-1.6-4,0-5.6s4-1.6,5.6,0 c20.4,21.2,31.2,48.4,31.2,78.4c0,4.8-0.4,9.6-0.8,14C432.6,270.4,431,272,428.6,272z"/> <path d="M382.6,168.4c-0.8,0-1.6-0.4-2.4-0.8c-10.4-7.6-22.4-13.6-35.2-18.4c-2-0.8-3.2-3.2-2.4-5.2s3.2-3.2,5.2-2.4 c13.6,4.8,26,11.2,37.2,19.2c1.6,1.2,2.4,3.6,0.8,5.6C385,167.6,383.8,168.4,382.6,168.4z"/> </g>
</svg>