<!DOCTYPE svg PUBLIC "-//W3C//DTD SVG 1.1//EN" "http://www.w3.org/Graphics/SVG/1.1/DTD/svg11.dtd">
<!-- Uploaded to: SVG Repo, www.svgrepo.com, Transformed by: SVG Repo Mixer Tools -->
<svg fill="#d4d4d4" height="800px" width="800px" version="1.1" id="Layer_1" xmlns="http://www.w3.org/2000/svg" xmlns:xlink="http://www.w3.org/1999/xlink" viewBox="0 0 512.8 512.8" xml:space="preserve" stroke="#d4d4d4">
<g id="SVGRepo_bgCarrier" stroke-width="0"/>
<g id="SVGRepo_tracerCarrier" stroke-linecap="round" stroke-linejoin="round"/>
<g id="SVGRepo_iconCarrier"> <g> <g> <path d="M298,104.8c17.2-14.4,32.8-40,32.8-84c0-1.2-0.4-3.2-1.2-4c-0.8-0.8-2-0.8-3.2-0.8c-14.8,2-32.4,11.2-47.6,30.8 c-4.4-17.2-10.8-31.6-19.6-45.2c-0.4-1.2-2-1.6-3.2-1.6s-2.8,0.8-3.2,2c-9.2,14.4-16.4,27.6-21.2,44c-14.4-18-29.6-28-46-30 c-1.2,0-2.4,0.4-3.2,0.8c-0.8,0.8-1.2,2-1.2,3.2c0,45.2,15.6,70.4,32.4,84.8C120,109.6,53.2,172,53.2,254 c0,60.8,39.2,118,106.8,156c62.8,38.4,87.2,66.8,84.8,98c0,2,1.2,4,3.6,4.4c0.8,0,2,0.4,3.2,0.4c7.2,0,17.6-2.8,22.4-14.4 c0.8-1.6,1.2-3.6,1.6-6.4c3.6-14.4,10.8-44.4,54.8-66c84.4-41.2,129.2-100.8,129.2-172C459.2,172,392,110.8,298,104.8z M279.2,58.8c0.8-0.4,1.6-1.6,1.6-2.4c13.6-18.8,28.8-28.8,42-32c-2,73.2-49.2,86.8-65.6,89.2C262.4,90.4,270.4,72.4,279.2,58.8z M256,11.6c7.6,12.8,12.8,26.8,16.8,43.6c-9.6,14.8-18,34-23.6,58.8c-3.6-0.8-10.4-2.4-18-6.4C232.4,56,242.4,33.2,256,11.6z M189.2,24.4c14,3.2,26.8,13.6,40,31.2c-2.8,13.2-4.8,28-5.6,47.2c-0.8-0.4-1.6-1.2-2.4-2C201.2,84.8,190,58.8,189.2,24.4z M326.4,418.4c-47.6,23.2-55.6,56.8-59.2,71.2c-0.4,2.4-0.8,4-1.6,5.2c-2.8,7.2-9.2,8.8-13.2,9.2c0.4-33.2-24.8-62-88.8-101.2 C98,366,60.8,311.6,60.8,253.6c0-80.4,68.8-140,163.2-141.6c10.8,6.4,20.8,8.8,25.2,9.6c0.8,0.8,2,2,2.8,2c0.4,0,17.2-1.2,35.2-12 c94.8,2,163.6,61.2,163.6,141.6C451.2,321.6,408,378.8,326.4,418.4z"/> </g> </g> <g> <g> <path d="M401.6,175.2c-1.6-1.2-4-1.2-5.6,0c-1.6,1.6-1.6,4,0,5.6c18.8,19.6,28.8,44.8,28.8,72.8c0,4.4-0.4,8.8-0.8,13.2 c-0.4,2,1.2,4,3.6,4.4h0.4c2,0,3.6-1.6,4-3.6c0.4-4.4,0.8-9.2,0.8-14C432.8,223.6,422,196.8,401.6,175.2z"/> </g> </g> <g> <g> <path d="M177.6,380.4l-0.8-0.4c-32.4-18.4-58-41.6-72.8-67.6c-1.2-2-3.6-2.4-5.6-1.6c-2,1.2-2.4,3.6-1.6,5.6 c16,27.2,42,51.6,76,70.4l0.8,0.4c0.8,0.4,1.2,0.4,2,0.4c1.2,0,2.8-0.8,3.6-2C180.4,384,179.6,381.6,177.6,380.4z"/> </g> </g> <g> <g> <path d="M384,160.8c-10.8-8.4-23.2-14.8-37.2-19.6c-2-0.8-4.4,0.4-5.2,2.4c-0.8,2,0.4,4.4,2.4,5.2c12.8,4.8,24.8,10.8,35.2,18.4 c0.8,0.4,1.6,0.8,2.4,0.8c1.2,0,2.4-0.4,3.2-1.6C386,164.8,385.6,162,384,160.8z"/> </g> </g> </g>
</svg>