<svg height="47.999" viewBox="0 0 44.331 47.999" width="44.331" xmlns="http://www.w3.org/2000/svg"><path d="m32.717 15.282c6.932 7.221 8.7 11.779 8.869 18.089.217 7.943-9.543 18.692-20.953 13.06-12.353-6.1-18.775-.289-18.775-.289s5.81-6.423-.289-18.775c-5.633-11.41 5.116-21.167 13.06-20.953 6.308.17 10.871 1.935 18.088 8.868z" fill="#db5743"/><g fill="#525c6b"><path d="m14.331 21.615c-.11-.262-.249-.523-.381-.844s-.287-.644-.422-1.007c-.15-.354-.3-.727-.444-1.118-.161-.382-.288-.793-.445-1.2l-.419-1.246a37.4 37.4 0 0 1 -1.2-4.655c-.066-.325-.088-.613-.138-.882-.026-.264-.049-.493-.067-.683 0-.369-.022-.6-.022-.6v-.059a.38.38 0 0 0 -.7-.168 6.758 6.758 0 0 0 -.325.64c-.069.208-.171.469-.244.773a7.187 7.187 0 0 0 -.17 1.021 12.223 12.223 0 0 0 .748 5.345 13.552 13.552 0 0 0 1.254 2.589 10.215 10.215 0 0 0 .762 1.086 8.91 8.91 0 0 0 .792.889 6.854 6.854 0 0 0 .751.685 4.046 4.046 0 0 0 .62.451c.355.227.575.341.575.341a.061.061 0 0 0 .086-.077s-.092-.23-.283-.606c-.105-.19-.217-.422-.328-.675z"/><path d="m23.275 33.155a15.381 15.381 0 0 0 1.781 1.266 14.241 14.241 0 0 0 1.958.985 11.338 11.338 0 0 0 1.825.588 9.092 9.092 0 0 0 1.346.213c.324.019.511.019.511.019a.173.173 0 0 0 .1-.316s-.156-.1-.434-.271-.648-.4-1.106-.674-.966-.6-1.524-.951c-.281-.165-.55-.372-.845-.542-.286-.188-.578-.375-.861-.576-.294-.183-.578-.383-.86-.574s-.567-.373-.829-.569l-1.482-1.014c-.435-.3-.814-.538-1.078-.709s-.428-.258-.428-.258a.446.446 0 0 0 -.6.62 9.781 9.781 0 0 0 1.146 1.463 13.172 13.172 0 0 0 1.38 1.3z"/><path d="m22.5 19.756a13.305 13.305 0 0 0 1.448 1.727 10.577 10.577 0 0 0 1.208 1.058c.307.22.493.337.493.337a.413.413 0 0 0 .59-.531s-.1-.2-.281-.526l-.719-1.313-.987-1.84c-.188-.329-.341-.693-.541-1.038-.181-.355-.368-.714-.538-1.082-.193-.356-.364-.726-.541-1.084-.158-.367-.359-.71-.511-1.061-.336-.7-.649-1.344-.918-1.9s-.515-1.026-.684-1.356-.286-.515-.286-.515a.46.46 0 0 0 -.377-.22.448.448 0 0 0 -.458.439 11.44 11.44 0 0 0 .227 2.169 15.41 15.41 0 0 0 .563 2.159 18.256 18.256 0 0 0 .979 2.371 17.022 17.022 0 0 0 1.333 2.206z"/><path d="m39.858 31.6s-.152-.077-.421-.193l-1.064-.472c-.874-.387-2.014-.9-3.146-1.441l-3.143-1.5c-.434-.21-.812-.37-1.075-.487s-.426-.17-.426-.17a.292.292 0 0 0 -.263.036.284.284 0 0 0 -.065.4 8.345 8.345 0 0 0 1.156 1.227 12.3 12.3 0 0 0 1.361 1.061 13 13 0 0 0 1.725.979 12.319 12.319 0 0 0 1.861.7 10.407 10.407 0 0 0 1.708.346 7.915 7.915 0 0 0 1.24.053c.293-.018.462-.038.462-.038a.271.271 0 0 0 .2-.144.265.265 0 0 0 -.11-.357z"/><path d="m29.009 15.584a8.476 8.476 0 0 0 .749 1.043 10.363 10.363 0 0 0 1.019 1.067 9.811 9.811 0 0 0 1.176.9 7.309 7.309 0 0 0 1.144.619 5.943 5.943 0 0 0 .877.308c.212.05.338.07.338.07a.278.278 0 0 0 .246-.468s-.088-.092-.25-.239l-.634-.581c-.523-.476-1.213-1.089-1.895-1.719s-1.379-1.254-1.926-1.718-.95-.758-.95-.758a.31.31 0 0 0 -.275-.038.3.3 0 0 0 -.184.386 6.285 6.285 0 0 0 .565 1.128z"/><path d="m13.583 31.912c-.64-1.112-1.57-2.488-2.523-3.841s-1.95-2.671-2.766-3.656c-.4-.495-.759-.9-1.018-1.184s-.424-.439-.424-.439a.179.179 0 0 0 -.138-.048.183.183 0 0 0 -.168.2s.019.227.087.612a10.735 10.735 0 0 0 .402 1.544 16.807 16.807 0 0 0 5.508 7.738 10.535 10.535 0 0 0 1.332.895c.337.192.547.285.547.285a.135.135 0 0 0 .108 0 .139.139 0 0 0 .078-.181s-.085-.213-.264-.558-.429-.82-.761-1.367z"/><path d="m33.672 44.256c-.363-.174-.846-.412-1.445-.678-1.167-.523-2.724-1.222-4.282-1.919s-3.094-1.395-4.293-1.9c-.6-.259-1.11-.457-1.472-.6s-.582-.2-.582-.2h-.012a.389.389 0 0 0 -.413.615s.144.181.417.472c.138.144.3.325.508.507s.427.408.7.614a17.292 17.292 0 0 0 1.883 1.333 17.611 17.611 0 0 0 2.369 1.216 15.062 15.062 0 0 0 4.84 1.207 9.936 9.936 0 0 0 1.664 0c.4-.037.626-.079.626-.079a.166.166 0 0 0 .11-.077.163.163 0 0 0 -.058-.223s-.2-.118-.56-.288z"/></g><path d="m36.415 13.258a21.1 21.1 0 0 1 7.916-3.449l-.282-1.469a22.358 22.358 0 0 0 -8.043 3.372 33.657 33.657 0 0 0 4.669-11.44l-1.47-.272a33.411 33.411 0 0 1 -5.305 12.184 22.71 22.71 0 0 0 -.061-9.035l-1.469.283c1.622 8.4-1.665 12.874-1.7 12.919l1.124.981c.04-.041 4.083-3.981 11.464-3.05l.188-1.484a17.682 17.682 0 0 0 -7.031.46z" fill="#3daa9d"/></svg>